<svg width="15" height="22" viewBox="0 0 15 22" fill="none" xmlns="http://www.w3.org/2000/svg">
<g clip-path="url(#clip0)">
<path d="M10.3432 10.8L14.6075 6.5783C15.1308 6.06023 15.1308 5.22028 14.6075 4.7018L13.6598 3.76355C13.1365 3.24548 12.2881 3.24548 11.7643 3.76355L7.5 7.98525L3.23565 3.76355C2.71236 3.24548 1.86392 3.24548 1.3402 3.76355L0.392472 4.7018C-0.130824 5.21986 -0.130824 6.05981 0.392472 6.5783L4.65682 10.8L0.392472 15.0217C-0.130824 15.5398 -0.130824 16.3797 0.392472 16.8982L1.3402 17.8365C1.86349 18.3545 2.71236 18.3545 3.23565 17.8365L7.5 13.6147L11.7643 17.8365C12.2876 18.3545 13.1365 18.3545 13.6598 17.8365L14.6075 16.8982C15.1308 16.3801 15.1308 15.5402 14.6075 15.0217L10.3432 10.8Z" fill="black"/>
</g>
<defs>
<clipPath id="clip0">
<rect width="15" height="21.6" fill="white"/>
</clipPath>
</defs>
</svg>
