<svg width="45" height="40" viewBox="0 0 45 40" fill="none" xmlns="http://www.w3.org/2000/svg">
<g clip-path="url(#clip0)">
<path d="M39.431 25H16.5291L17.0404 27.5H38.0105C39.2137 27.5 40.1055 28.6173 39.8389 29.7905L39.4079 31.6871C40.8681 32.3959 41.875 33.8928 41.875 35.625C41.875 38.0627 39.8813 40.0347 37.4356 39.9995C35.1057 39.966 33.1895 38.0752 33.1266 35.7459C33.0923 34.4734 33.602 33.3202 34.4394 32.4999H18.0606C18.8713 33.2941 19.375 34.4005 19.375 35.625C19.375 38.1104 17.3025 40.1118 14.7914 39.9952C12.5617 39.8916 10.7484 38.0901 10.6312 35.861C10.5407 34.1396 11.4465 32.6223 12.8227 31.8309L7.33461 5H1.875C0.839453 5 0 4.16055 0 3.125V1.875C0 0.839453 0.839453 0 1.875 0H9.88508C10.7758 0 11.5435 0.626641 11.722 1.49922L12.4381 5H43.1242C44.3274 5 45.2192 6.11727 44.9526 7.29055L41.2594 23.5405C41.0654 24.3942 40.3065 25 39.431 25ZM31.875 13.125H28.125V10C28.125 9.30961 27.5654 8.75 26.875 8.75H25.625C24.9346 8.75 24.375 9.30961 24.375 10V13.125H20.625C19.9346 13.125 19.375 13.6846 19.375 14.375V15.625C19.375 16.3154 19.9346 16.875 20.625 16.875H24.375V20C24.375 20.6904 24.9346 21.25 25.625 21.25H26.875C27.5654 21.25 28.125 20.6904 28.125 20V16.875H31.875C32.5654 16.875 33.125 16.3154 33.125 15.625V14.375C33.125 13.6846 32.5654 13.125 31.875 13.125Z" fill="black"/>
</g>
<defs>
<clipPath id="clip0">
<rect width="45" height="40" fill="white"/>
</clipPath>
</defs>
</svg>
